inDegrees=no
num_controls=7
num_derivatives=13
num_iterations=103
num_multipliers=7
num_parameters=0
num_slacks=7
num_states=26
objective=0.467144
objective_accelerations=0.022337
objective_balance=0.000465
objective_effort=0.019595
objective_height=0.419921
objective_ligament=0.004826
solver_duration=1270.252637
status=Solve_Succeeded
success=true
DataType=double
version=3
OpenSimVersion=4.5
endheader
time	/jointset/ground_pelvis/pelvis_tilt/value	/jointset/ground_pelvis/pelvis_tx/value	/jointset/ground_pelvis/pelvis_ty/value	/jointset/hip_r/hip_flexion_r/value	/jointset/hip_r/hip_adduction_r/value	/jointset/hip_r/hip_rotation_r/value	/jointset/back/lumbar_extension/value	/jointset/patellofemoral_r/patellar_flexion_r/value	/jointset/knee_r/knee_flexion_r/value	/jointset/knee_r/knee_adduction_r/value	/jointset/knee_r/knee_rotation_r/value	/jointset/ankle_r/ankle_angle_r/value	/jointset/subtalar_r/subtalar_angle_r/value	/jointset/ground_pelvis/pelvis_tilt/speed	/jointset/ground_pelvis/pelvis_tx/speed	/jointset/ground_pelvis/pelvis_ty/speed	/jointset/hip_r/hip_flexion_r/speed	/jointset/hip_r/hip_adduction_r/speed	/jointset/hip_r/hip_rotation_r/speed	/jointset/back/lumbar_extension/speed	/jointset/patellofemoral_r/patellar_flexion_r/speed	/jointset/knee_r/knee_flexion_r/speed	/jointset/knee_r/knee_adduction_r/speed	/jointset/knee_r/knee_rotation_r/speed	/jointset/ankle_r/ankle_angle_r/speed	/jointset/subtalar_r/subtalar_angle_r/speed	/forceset/tau_hip_flexion_r	/forceset/tau_hip_adduction_r	/forceset/tau_hip_rotation_r	/forceset/tau_knee_flexion_r	/forceset/tau_ankle_angle_r	/forceset/tau_subtalar_angle_r	/forceset/tau_lumbar_extension	lambda_cid13_p0	lambda_cid14_p0	lambda_cid14_p1	lambda_cid14_p2	lambda_cid14_p3	lambda_cid14_p4	lambda_cid14_p5	/jointset/ground_pelvis/pelvis_tilt/accel	/jointset/ground_pelvis/pelvis_tx/accel	/jointset/ground_pelvis/pelvis_ty/accel	/jointset/hip_r/hip_flexion_r/accel	/jointset/hip_r/hip_adduction_r/accel	/jointset/hip_r/hip_rotation_r/accel	/jointset/back/lumbar_extension/accel	/jointset/patellofemoral_r/patellar_flexion_r/accel	/jointset/knee_r/knee_flexion_r/accel	/jointset/knee_r/knee_adduction_r/accel	/jointset/knee_r/knee_rotation_r/accel	/jointset/ankle_r/ankle_angle_r/accel	/jointset/subtalar_r/subtalar_angle_r/accel	gamma_cid13_p0	gamma_cid14_p0	gamma_cid14_p1	gamma_cid14_p2	gamma_cid14_p3	gamma_cid14_p4	gamma_cid14_p5
0	-0.001772052571757913	0.1288363071257821	0.9341291185124843	0.1934211968871041	-0.2191478506508433	-0.2435698844242247	-0.2903787966825928	0.2311786273363411	0.2311786273363406	0.1126637097277454	0.1697614662618368	0.089344008118978	0.07510559473842029	0	0	0	0	0	0	0	0	0	0	0	0	0	0.06885905004806973	-0.02823814148387263	0.001041495268998527	-0.2280191738252739	0.133238681139518	-0.08454000131825941	0.01305949559420323	-29.77080012137412	-4.079231021345444	-33.23526753828948	0.9291892235412667	-16.75438308334422	-629.2453081155628	36.36684696130914	0.8257238752130983	-0.5596546730067244	-0.3383693786728654	3.005348237799446	-0.04349914804293825	1.168157044488492	-4.755011475236058	5.864724637765731	5.86472463776555	-1.483293399211331	0.2547965953828267	2.436460599421082	0.6624245621425078	1.360377718054222e-08	9.651139647211959e-09	-9.971648767975351e-08	7.483091558290886e-08	1.45924978507874e-09	5.518718126783825e-08	-8.799079941359193e-08
0.01	-0.001729798075754697	0.1288098636181348	0.9341127211787951	0.1935655990199413	-0.2191490556167516	-0.2435111567909048	-0.2906156697675749	0.2314660745051495	0.2314660745051566	0.1125891242394794	0.1697718469489373	0.08946522407557159	0.07513973226117825	0.008342456263935824	-0.005144892446554732	-0.003271173777764932	0.02866602019634081	-0.0002524464197918932	0.01170164855022307	-0.04707332572463793	0.05721015785310278	0.05721015785310258	-0.01481597598858364	0.002047444647856795	0.0242668025007586	0.006821990576139482	0.07135865845860685	-0.0418985884791635	0.0008204073029809272	-0.235898359210134	0.1428702896850048	-0.07687230447524022	0.01213097648540206	-29.77408003278393	-0.5705414891676458	-29.33274451905675	0.354884398030695	-20.49042611461703	-630.4846466840489	45.4426429418747	0.8222391678012089	-0.470334876277373	-0.3202363958758533	2.765067900649042	-0.01783775250809437	1.164602548970176	-4.638299430257261	5.607267251914954	5.607267251915032	-1.465590514011199	0.1754294076629824	2.425334141159084	0.6912523273400391	1.854955973075996e-08	4.413475318218545e-09	-1.385207890532323e-07	9.663177139481883e-08	1.183609867005546e-08	1.366014141330496e-08	-1.322524933586183e-07
0.02	-0.001607372483948245	0.1287362855168624	0.9340638631036188	0.1939902291527601	-0.2191531291195644	-0.2433367259143448	-0.2913142373716392	0.2323172444310637	0.2323172444310631	0.1123694108282334	0.1698018442841386	0.08982981687032611	0.07524192289409566	0.01603421916057166	-0.00942691872500871	-0.006492148297400423	0.05604559999659115	-0.0005737073820068544	0.02314064864768659	-0.09233890381645694	0.1127445514195012	0.1127445514195011	-0.02902558459033825	0.003923329622748799	0.04867536763175002	0.01361062203189256	0.07385826686911888	-0.05555903547448261	0.0005993193368930274	-0.2437775445950034	0.1525018982304781	-0.06920460763225886	0.01120245737659224	-29.78367166914443	2.983333790190445	-25.43422128483286	-0.2051766389527423	-24.27034094191862	-631.0339582195278	54.36220095707866	0.6955852017531307	-0.3870814393866033	-0.3283295270469758	2.748060158581358	-0.05726205652755059	1.115627353936583	-4.393461948672257	5.529571780424868	5.529571780424746	-1.362019921845528	0.2204846607898715	2.464813125467609	0.6557527380652181	2.349534228097769e-08	-8.241890107748682e-10	-1.773250904267112e-07	1.184326272067288e-07	2.221294755503218e-08	-2.786689844122834e-08	-1.765141873036447e-07
0.03	-0.001410311166073073	0.1286225725294325	0.9339829980947177	0.1946834015110697	-0.219160770661696	-0.2430497617633405	-0.2924568141453592	0.2337158445848425	0.2337158445848457	0.1120105385576417	0.1698504132768985	0.09043741926939913	0.07541130732654859	0.02337938829581181	-0.01333435054814941	-0.00967463709631452	0.08247438699532858	-0.0009577022775381814	0.03421019839980669	-0.135927666958611	0.1667288278437336	0.166728827843733	-0.04266825138353914	0.005765584338319255	0.07268927439836884	0.02021862330326532	0.06918271679688297	-0.05091093112919381	0.0009791004213830453	-0.2365312172876672	0.1417745845622926	-0.0687462182645448	0.0148193671325102	-29.79927412545206	-0.4956035157133015	-25.70222840725609	-0.32470551326695	-21.68660640648394	-631.7656619319228	52.87140243063966	0.7541861013752483	-0.395370337422188	-0.3122818395024211	2.5731162057262	-0.02943200476994096	1.096344992873501	-4.304265901573801	5.295853130337732	5.295853130337743	-1.353311284521255	0.1623860649411391	2.346306533497216	0.6561640076946241	2.679352933885487e-08	-2.236459120483297e-09	-1.972563194934813e-07	1.22683220139445e-07	2.555784755864024e-08	-5.284981962167531e-08	-1.857508426162904e-07
0.04	-0.001139757490452837	0.1284692259670421	0.93387049354119	0.1956374273864057	-0.2191723449125225	-0.2426533568734122	-0.2940278150314193	0.235646887014257	0.2356468870142567	0.1115176553738738	0.1699166628543851	0.09128048615238413	0.07564533980891951	0.03073269070967747	-0.01735363371707664	-0.01282005722274535	0.1082163034023113	-0.00136024912124053	0.04502879643288159	-0.1780237262842354	0.2192330065445792	0.2192330065445788	-0.05582776723530129	0.007459446573910713	0.09576826441451597	0.02654023201549254	0.06450716672464216	-0.04626282678388059	0.001358881505754141	-0.2292848899803178	0.1310472708941201	-0.06828782889679538	0.01843627688841062	-29.82037539906217	-3.932357286307092	-25.97482069248893	-0.4298293444122677	-19.14841567025837	-631.8541331974362	51.2345192106474	0.6972118574782594	-0.4094517085439413	-0.3209157925503202	2.61068604023041	-0.06097244616175169	1.065437010127538	-4.094921185366324	5.233552235747534	5.233552235747529	-1.265389733557792	0.1908061647940747	2.277829775373235	0.598474226236106	3.005774535565287e-08	-3.569855122577602e-09	-2.167984130487728e-07	1.265719519818686e-07	2.875775892551905e-08	-7.749162495317205e-08	-1.942653321839387e-07
0.05	-0.0007961078039006928	0.1282756127507402	0.9337266278363348	0.1968453158358304	-0.2191882295667079	-0.2421501132911512	-0.2960120797299045	0.2380955702280309	0.2380955702280315	0.1108960284103946	0.1699992125508287	0.09235017372815985	0.07594108582363809	0.03796322948014965	-0.02133883808191699	-0.01595326153366715	0.1332188615825786	-0.001823251753843189	0.05556393790302634	-0.2185705061527059	0.2702464656102281	0.2702464656102272	-0.06840560586772292	0.009029484229004193	0.1180652387256391	0.03257406515295989	0.06182379050918549	-0.04637968785933355	0.001564430384850291	-0.2269410995406483	0.1265390391896586	-0.06588672802711469	0.02086450488406989	-29.84646086755103	-5.269233665659211	-25.10541416043497	-0.6377543566327799	-18.50068492880503	-632.3753762640428	52.48436570493811	0.7308753329605115	-0.3885233039241934	-0.3095651156133264	2.42366328890953	-0.03995154822482311	1.039181579810973	-3.995750298510191	4.996661114052046	4.996661114051995	-1.240197279519429	0.1369761748766749	2.19003333405323	0.600583150487337	2.85171112848064e-08	-6.212731859013023e-09	-1.985091864227657e-07	1.178022296968444e-07	2.979308141519217e-08	-1.024125724576437e-07	-1.809453148374916e-07
0.06	-0.0003811726404184172	0.1280430537900959	0.9335514216153205	0.1982989543834516	-0.2192089417225	-0.2415431925213181	-0.2983940510092596	0.2410466717068769	0.2410466717068766	0.1101513797903039	0.170096837345624	0.093639711462061	0.07629611922832844	0.04498978609577564	-0.02514278258556279	-0.01908816045456959	0.1573663230422322	-0.002325749443059448	0.06576423394729351	-0.2575650424580849	0.3197166595590153	0.3197166595590148	-0.08043209855754951	0.01047446624448423	0.1397382960396173	0.03839771000983902	0.05914041429370356	-0.04649654893478531	0.001769979263939151	-0.2245973091009894	0.122030807485194	-0.06348562715743343	0.02329273287970936	-29.87686148322872	-6.56657458439041	-24.23823766805447	-0.8348694630444174	-17.90004828593012	-632.3027005741642	53.60758417598682	0.6564154265090458	-0.3731997363050615	-0.3212547145464448	2.439666696107657	-0.06887145748446545	0.9984679249520175	-3.784472472747996	4.924899212375169	4.924899212375395	-1.155120545038801	0.1657950368713887	2.153046375944221	0.5564365701184603	2.677416773658542e-08	-8.91074462636807e-09	-1.786270621049144e-07	1.084995198696119e-07	3.073726332056189e-08	-1.27345273316767e-07	-1.667059498315038e-07
0.07000000000000001	0.0001029533010570199	0.1277732427417378	0.9333447915779773	0.1999901206344558	-0.2192349281098644	-0.2408361914847234	-0.3011582294346782	0.244485014568124	0.244485014568122	0.1092892640822646	0.1702085764904807	0.09514280603747464	0.0767082729246025	0.05180821970049972	-0.02880070245312439	-0.02224186748111408	0.1807392637428528	-0.0028685865704657	0.0755808059214112	-0.2950271890295596	0.3677048024297347	0.3677048024297394	-0.09192002222326108	0.01184423085614851	0.1607703214644614	0.04400901751937725	0.05595774253663283	-0.04548410732500064	0.002010946569446485	-0.2216233730769184	0.1162808315248674	-0.06132700413953147	0.02607619267246179	-29.91092666154151	-8.305037992052631	-23.54258560507077	-1.017227652549116	-16.89196826400137	-632.5863174654052	54.2813547157555	0.6904841960779295	-0.3592732582303537	-0.3130575380331554	2.266959974101121	-0.04654721234190259	0.9649983712265637	-3.690567709874758	4.698699951592812	4.698699951593461	-1.134989554748201	0.1182181090881457	2.061738710648347	0.5598614241732741	2.531069960650904e-08	-1.100056451701994e-08	-1.626205108954658e-07	9.740840107847871e-08	3.126525403075007e-08	-1.467725875482411e-07	-1.513830780280463e-07
